<?xml version="1.0" encoding="UTF-8"?>
<svg id="_レイヤー_2" data-name="レイヤー 2" xmlns="http://www.w3.org/2000/svg" viewBox="0 0 152.08 136.74">
  <defs>
    <style>
      .cls-1, .cls-2, .cls-3 {
        fill: #fffddf;
      }

      .cls-4 {
        stroke-width: 2px;
      }

      .cls-4, .cls-5 {
        fill: none;
        stroke: #fffddf;
        stroke-miterlimit: 10;
      }

      .cls-2 {
        font-family: Futura-Medium, Futura;
        font-size: 20.15px;
        font-weight: 500;
      }

      .cls-3 {
        font-family: CenturyGothic-Bold, 'Century Gothic';
        font-size: 9px;
        font-weight: 700;
      }

      .cls-6 {
        fill: #171c61;
        opacity: .7;
      }
    </style>
  </defs>
  <g id="main">
    <g>
      <ellipse class="cls-6" cx="76.48" cy="76.23" rx="59.93" ry="59.99"/>
      <path class="cls-5" d="m136.26,80.37c-2.12,31.21-28.09,55.87-59.8,55.87s-57.27-24.27-59.75-55.14"/>
      <path class="cls-5" d="m119.27,70.23c0,23.67-19.17,42.86-42.82,42.86s-42.82-19.19-42.82-42.86"/>
      <text class="cls-2" transform="translate(16.56 64.93) rotate(-67.98)"><tspan x="0" y="0">N</tspan></text>
      <text class="cls-2" transform="translate(24.74 46.66) rotate(-52.48)"><tspan x="0" y="0">a</tspan></text>
      <text class="cls-2" transform="translate(34.64 34.63) rotate(-39.65)"><tspan x="0" y="0">c</tspan></text>
      <text class="cls-2" transform="translate(45.27 26.29) rotate(-26.47)"><tspan x="0" y="0">h</tspan></text>
      <text class="cls-2" transform="translate(58.98 20.24) rotate(-14.54)"><tspan x="0" y="0">t</tspan></text>
      <text class="cls-2" transform="translate(71.35 17.82) rotate(-1.41)"><tspan x="0" y="0"> </tspan></text>
      <text class="cls-2" transform="translate(78.37 17.32) rotate(9.86)"><tspan x="0" y="0">D</tspan></text>
      <text class="cls-2" transform="translate(94.5 20.6) rotate(24.04)"><tspan x="0" y="0">e</tspan></text>
      <text class="cls-2" transform="translate(107.68 27.06) rotate(36.11)"><tspan x="0" y="0">s</tspan></text>
      <text class="cls-2" transform="translate(116.97 34.36) rotate(45.21)"><tspan x="0" y="0">i</tspan></text>
      <text class="cls-2" transform="translate(123.05 40.49) rotate(55.88)"><tspan x="0" y="0">g</tspan></text>
      <text class="cls-2" transform="translate(131.39 53.63) rotate(69.19)"><tspan x="0" y="0">n</tspan></text>
      <circle class="cls-1" cx="26.63" cy="88.6" r="1.07"/>
      <circle class="cls-1" cx="126.65" cy="88.6" r="1.07"/>
      <text class="cls-3" transform="translate(28.42 94.1) rotate(71.06)"><tspan x="0" y="0">Y</tspan></text>
      <text class="cls-3" transform="translate(30.5 99.99) rotate(63.03)"><tspan x="0" y="0">u</tspan></text>
      <text class="cls-3" transform="translate(33.54 105.76) rotate(54.85)"><tspan x="0" y="0">k</tspan></text>
      <text class="cls-3" transform="translate(37.21 110.76) rotate(49.11)"><tspan x="0" y="0">i</tspan></text>
      <text class="cls-3" transform="translate(39.26 113.17) rotate(43.41)"><tspan x="0" y="0">n</tspan></text>
      <text class="cls-3" transform="translate(44.02 117.59) rotate(35.61)"><tspan x="0" y="0">a</tspan></text>
      <text class="cls-3" transform="translate(49.74 121.51) rotate(29.7)"><tspan x="0" y="0"> </tspan></text>
      <text class="cls-3" transform="translate(52.79 123.3) rotate(23.75)"><tspan x="0" y="0">H</tspan></text>
      <text class="cls-3" transform="translate(59.43 126.12) rotate(15.84)"><tspan x="0" y="0">o</tspan></text>
      <text class="cls-3" transform="translate(66.01 127.87) rotate(9.03)"><tspan x="0" y="0">s</tspan></text>
      <text class="cls-3" transform="translate(70.98 128.65) rotate(1.99)"><tspan x="0" y="0">o</tspan></text>
      <text class="cls-3" transform="translate(77.85 128.81) rotate(-6.09)"><tspan x="0" y="0">g</tspan></text>
      <text class="cls-3" transform="translate(84.84 127.99) rotate(-13.81)"><tspan x="0" y="0">a</tspan></text>
      <text class="cls-3" transform="translate(91.5 126.21) rotate(-19.13)"><tspan x="0" y="0">i</tspan></text>
      <text class="cls-3" transform="translate(94.38 125.2) rotate(-22.53)"><tspan x="0" y="0"> </tspan></text>
      <text class="cls-3" transform="translate(97.58 123.88) rotate(-27.52)"><tspan x="0" y="0">P</tspan></text>
      <text class="cls-3" transform="translate(102.98 121.02) rotate(-34.46)"><tspan x="0" y="0">o</tspan></text>
      <text class="cls-3" transform="translate(108.49 117.09) rotate(-40.4)"><tspan x="0" y="0">r</tspan></text>
      <text class="cls-3" transform="translate(111.35 114.61) rotate(-44.68)"><tspan x="0" y="0">t</tspan></text>
      <text class="cls-3" transform="translate(113.89 112.04) rotate(-48.89)"><tspan x="0" y="0">f</tspan></text>
      <text class="cls-3" transform="translate(116.26 109.37) rotate(-55.35)"><tspan x="0" y="0">o</tspan></text>
      <text class="cls-3" transform="translate(119.99 103.7) rotate(-61.85)"><tspan x="0" y="0">l</tspan></text>
      <text class="cls-3" transform="translate(121.41 100.98) rotate(-65.98)"><tspan x="0" y="0">i</tspan></text>
      <text class="cls-3" transform="translate(122.76 98.06) rotate(-72.83)"><tspan x="0" y="0">o</tspan></text>
      <line class="cls-4" x1="77.18" y1="39.32" x2="77.18" y2="77.9"/>
      <line class="cls-4" x1="77.36" y1="76.97" x2="47.38" y2="76.97"/>
    </g>
  </g>
</svg>