<?xml version="1.0" encoding="UTF-8"?>
<svg id="_レイヤー_2" data-name="レイヤー_2" xmlns="http://www.w3.org/2000/svg" viewBox="0 0 509.18 508.87">
  <defs>
    <style>
      .cls-1 {
        stroke-width: 2.93px;
      }

      .cls-1, .cls-2 {
        fill: none;
        stroke: #fffddf;
        stroke-miterlimit: 10;
      }

      .cls-3 {
        font-family: CenturyGothic, 'Century Gothic';
        font-size: 26.36px;
      }

      .cls-3, .cls-4, .cls-5 {
        fill: #fffddf;
      }

      .cls-5 {
        font-family: Futura-Medium, Futura;
        font-size: 70px;
        font-weight: 500;
      }

      .cls-6 {
        fill: #171c61;
        opacity: .7;
      }

      .cls-2 {
        stroke-width: 2.2px;
      }
    </style>
  </defs>
  <g id="memo">
    <g>
      <ellipse class="cls-6" cx="253.04" cy="302.74" rx="204.75" ry="204.97"/>
      <path class="cls-2" d="M457.28,316.87c-7.25,106.64-95.96,190.9-204.33,190.9S57.26,424.84,48.79,319.39"/>
      <path class="cls-2" d="M399.24,302.74c0,80.88-65.5,146.45-146.29,146.45s-146.29-65.57-146.29-146.45"/>
      <text class="cls-5" transform="translate(58.48 228.65) rotate(-61.17)"><tspan x="0" y="0">Y</tspan></text>
      <text class="cls-5" transform="translate(78.58 192.39) rotate(-50.97)"><tspan x="0" y="0">u</tspan></text>
      <text class="cls-5" transform="translate(105.28 160.04) rotate(-40.13)"><tspan x="0" y="0">z</tspan></text>
      <text class="cls-5" transform="translate(137.45 133.36) rotate(-29.13)"><tspan x="0" y="0">u</tspan></text>
      <text class="cls-5" transform="translate(174.3 113.39) rotate(-18.18)"><tspan x="0" y="0">k</tspan></text>
      <text class="cls-5" transform="translate(211.5 102.16) rotate(-9.65)"><tspan x="0" y="0">i</tspan></text>
      <text class="cls-5" transform="translate(232.67 98.26) rotate(-1.06)"><tspan x="0" y="0">c</tspan></text>
      <text class="cls-5" transform="translate(271.46 97.86) rotate(11.21)"><tspan x="0" y="0">h</tspan></text>
      <text class="cls-5" transform="translate(312.7 107.24) rotate(20.54)"><tspan x="0" y="0">i</tspan></text>
      <text class="cls-5" transform="translate(333 115) rotate(27.31)"><tspan x="0" y="0"> </tspan></text>
      <text class="cls-5" transform="translate(355.86 126.76) rotate(35.67)"><tspan x="0" y="0">L</tspan></text>
      <text class="cls-5" transform="translate(384.26 146.99) rotate(46.35)"><tspan x="0" y="0">a</tspan></text>
      <text class="cls-5" transform="translate(415.49 180.31) rotate(58.15)"><tspan x="0" y="0">b</tspan></text>
      <ellipse class="cls-4" cx="82.71" cy="345.01" rx="3.66" ry="3.66"/>
      <ellipse class="cls-4" cx="424.45" cy="345.01" rx="3.66" ry="3.66"/>
      <text class="cls-3" transform="translate(105.71 404.63) rotate(57.74)"><tspan x="0" y="0">Y</tspan></text>
      <text class="cls-3" transform="translate(114.98 419.15) rotate(51.39)"><tspan x="0" y="0">u</tspan></text>
      <text class="cls-3" transform="translate(126.97 433.78) rotate(45.21)"><tspan x="0" y="0">k</tspan></text>
      <text class="cls-3" transform="translate(138.27 444.84) rotate(41.14)"><tspan x="0" y="0">i</tspan></text>
      <text class="cls-3" transform="translate(144.23 450.17) rotate(36.63)"><tspan x="0" y="0">n</tspan></text>
      <text class="cls-3" transform="translate(159.52 461.4) rotate(30.04)"><tspan x="0" y="0">a</tspan></text>
      <text class="cls-3" transform="translate(177.67 471.48) rotate(24.99)"><tspan x="0" y="0"> </tspan></text>
      <text class="cls-3" transform="translate(186.72 475.83) rotate(19.95)"><tspan x="0" y="0">H</tspan></text>
      <text class="cls-3" transform="translate(206.52 482.8) rotate(13.11)"><tspan x="0" y="0">o</tspan></text>
      <text class="cls-3" transform="translate(226.12 487.05) rotate(7.48)"><tspan x="0" y="0">s</tspan></text>
      <text class="cls-3" transform="translate(239.02 488.79) rotate(1.71)"><tspan x="0" y="0">o</tspan></text>
      <text class="cls-3" transform="translate(259.26 489.21) rotate(-5.27)"><tspan x="0" y="0">g</tspan></text>
      <text class="cls-3" transform="translate(279.86 487.14) rotate(-12)"><tspan x="0" y="0">a</tspan></text>
      <text class="cls-3" transform="translate(299.97 482.5) rotate(-16.49)"><tspan x="0" y="0">i</tspan></text>
      <text class="cls-3" transform="translate(307.38 480.27) rotate(-19.2)"><tspan x="0" y="0"> </tspan></text>
      <text class="cls-3" transform="translate(316.82 477.04) rotate(-23.55)"><tspan x="0" y="0">P</tspan></text>
      <text class="cls-3" transform="translate(333.68 469.58) rotate(-29.52)"><tspan x="0" y="0">o</tspan></text>
      <text class="cls-3" transform="translate(350.9 459.47) rotate(-34.35)"><tspan x="0" y="0">r</tspan></text>
      <text class="cls-3" transform="translate(359.5 453.52) rotate(-37.89)"><tspan x="0" y="0">t</tspan></text>
      <text class="cls-3" transform="translate(368.51 446.39) rotate(-41.59)"><tspan x="0" y="0">f</tspan></text>
      <text class="cls-3" transform="translate(376.85 439.1) rotate(-46.93)"><tspan x="0" y="0">o</tspan></text>
      <text class="cls-3" transform="translate(390.23 424.24) rotate(-51.93)"><tspan x="0" y="0">l</tspan></text>
      <text class="cls-3" transform="translate(394.94 418.12) rotate(-54.78)"><tspan x="0" y="0">i</tspan></text>
      <text class="cls-3" transform="translate(399.72 411.61) rotate(-60.1)"><tspan x="0" y="0">o</tspan></text>
      <line class="cls-1" x1="255.41" y1="173.46" x2="255.41" y2="305.26"/>
      <line class="cls-1" x1="256.02" y1="305.26" x2="153.62" y2="305.26"/>
    </g>
  </g>
</svg>